<?xml version="1.0" encoding="iso-8859-1"?>
<!-- Generator: Adobe Illustrator 19.0.0, SVG Export Plug-In . SVG Version: 6.00 Build 0)  -->
<svg version="1.1" id="Capa_1" xmlns="http://www.w3.org/2000/svg" xmlns:xlink="http://www.w3.org/1999/xlink" x="0px" y="0px"
	 viewBox="0 0 433.633 433.633" style="enable-background:new 0 0 433.633 433.633;" xml:space="preserve">
<g>
	<g>
		<polygon style="fill:#00EFD1;" points="433.633,109.185 365.192,154.638 216.816,70.524 299.363,27.683 		"/>
		<polygon style="fill:#00EFD1;" points="433.633,200.091 366.237,240.842 365.192,241.365 299.363,281.593 216.816,238.23 
			365.192,154.638 		"/>
	</g>
	<path style="fill:#00CEB4;" d="M365.192,241.887v65.306c0.118,11.236-5.888,21.645-15.673,27.167L232.49,401.756
		c-4.703,2.898-10.152,4.351-15.673,4.18V238.23l82.547,43.363l65.829-40.229V241.887z"/>
	<polygon style="fill:#00ACEA;" points="365.192,154.638 216.816,238.23 68.963,154.638 216.816,70.524 	"/>
	<path style="fill:#00CEB4;" d="M216.816,238.23v167.706c-5.521,0.171-10.971-1.282-15.673-4.18L84.637,334.361
		c-9.786-5.522-15.791-15.932-15.673-27.167v-65.306l0,0l65.306,39.706L216.816,238.23z"/>
	<g>
		<polygon style="fill:#00EFD1;" points="216.816,70.524 68.963,154.638 0,109.185 134.269,27.683 		"/>
		<polygon style="fill:#00EFD1;" points="216.816,238.23 134.269,281.593 68.963,241.887 67.396,240.842 0,200.091 68.963,154.638 
					"/>
	</g>
</g>
<g>
</g>
<g>
</g>
<g>
</g>
<g>
</g>
<g>
</g>
<g>
</g>
<g>
</g>
<g>
</g>
<g>
</g>
<g>
</g>
<g>
</g>
<g>
</g>
<g>
</g>
<g>
</g>
<g>
</g>
</svg>
